<svg xmlns="http://www.w3.org/2000/svg" width="276.148" height="151.121" viewBox="0 0 276.148 151.121">
  <g id="LOGO_HOME" data-name="LOGO HOME" transform="translate(1318.75 -437.802)">
    <path id="Tracé_11" data-name="Tracé 11" d="M-1217.918,561.973a12.872,12.872,0,0,0-10.99,7.09h-.035c0-3.014.092-6.026.274-7.975-3.275,1.15-8.279,2.833-12.28,3.987v.711c3.093.177,4.183.974,4.183,3.987v29.1l-4.183,3.368v1.233c2.932-.26,5.262-.519,8.368-.519s5.433.259,8.366.519v-1.077c-2.712-.29-5.229-1.356-5.229-3.68v-20.14c0-5.76,3.634-10.9,9.219-10.9,2.569,0,3.632.886,5.762,2.125,0-3.1-.179-5.493-.356-7.442a7.152,7.152,0,0,0-3.457-.711" transform="translate(-20.279 -32.134)"/>
    <path id="Tracé_12" data-name="Tracé 12" d="M-1026.617,565.248a12.742,12.742,0,0,0,3.664-.549l1.1-4.577a22.636,22.636,0,0,1-4.944.549,62.872,62.872,0,0,1-8.233-.73,78.984,78.984,0,0,0-8.146-.549c-11.987,0-17.021,8.327-17.021,15.1a16.066,16.066,0,0,0,4.208,10.523l-7.961,4.942a9.827,9.827,0,0,0-.643,4.028c.366,7.137,6.134,9.151,13.914,9.151h14.092c4.208,0,6.77.551,6.77,4.85,0,6.316-7.685,8.6-12.717,8.6-5.22,0-10.16-3.111-10.16-8.512a10.654,10.654,0,0,1,.824-3.841l-5.95,2.654a8.533,8.533,0,0,0-1.1,4.208c0,8.145,9.7,9.518,16.107,9.518,11.621,0,20.314-6.225,20.314-14.185,0-5.216-3.11-10.616-14.823-10.616h-15.1c-3.663,0-5.4-2.012-5.4-3.476,0-1.737.824-2.747,4.485-5.307a17.468,17.468,0,0,0,8.51,2.286c12.723,0,17.756-7.323,17.756-14.641a13.2,13.2,0,0,0-4.3-9.884l.183-.184a14.575,14.575,0,0,0,4.574.64m-16.476,19.62c-6.382,0-8.951-6.735-8.951-12.142,0-4.253,2.747-7.977,7.357-7.977,6.467,0,8.948,6.115,8.948,11.258,0,4.517-2.036,8.86-7.355,8.86" transform="translate(-66.245 -31.692)"/>
    <path id="Tracé_13" data-name="Tracé 13" d="M-1270.589,589.82l-14.979-39.082a49.539,49.539,0,0,1-3.012-9.751,26.96,26.96,0,0,1-4.611.533,56.942,56.942,0,0,1-6.734-.533v1.57c1.928.44,2.8.7,2.8,2.714a9.973,9.973,0,0,1-.525,2.891l-15.585,42.729c-1.751,4.816-2.541,5.692-5.518,5.78V598c2.6,0,5.2-.533,7.8-.533,2.254,0,4.592.533,6.846.533v-1.24c-3.64-.089-4.5-.888-4.5-2.219a20.872,20.872,0,0,1,1.385-5.935l4.245-12.23h18.938l3.539,9.748c1.811,4.874,2.328,6.38,2.328,7.977,0,1.683-.948,2.393-3.967,2.659V598c3.363,0,6.726-.533,10.091-.533,2.244,0,4.4.533,6.642.533v-1c-3.192-.623-3.634-1.241-5.937-7.18m-30.209-17.628,7.882-21.963h.178l7.882,21.963Z" transform="translate(0 -26.895)"/>
    <path id="Tracé_14" data-name="Tracé 14" d="M-1114.107,541.514l12.584,7.888h4.077l-11.433-11.877c-3.1-3.191-4.166-3.722-5.227-3.722a3.8,3.8,0,0,0-3.636,3.457c0,1.595,1.862,3.19,3.636,4.254" transform="translate(-52.392 -25.022)"/>
    <path id="Tracé_15" data-name="Tracé 15" d="M-1106.722,560.109c-12.408,0-21.449,9.215-21.449,21.534,0,12.85,8.419,22.067,20.826,22.067,7.624,0,13.915-2.3,18.172-6.114l.617-5.76c-7.176,5.051-9.834,5.848-14.354,5.848-10.28,0-17.2-7.266-17.106-17.372h33.5c0-12.228-6.735-20.2-20.2-20.2m-12.762,16.02a12.8,12.8,0,0,1,12.851-11.346c7,0,11.433,4.521,11.433,11.346Z" transform="translate(-49.674 -31.879)"/>
    <path id="Tracé_16" data-name="Tracé 16" d="M-1174.818,560.907a17.787,17.787,0,0,0-14.532,7h-.557l.444-7a126.016,126.016,0,0,1-13.294,3.986v.711c.44.089.886.177,1.328.265,2.926.621,3.9,1.151,3.9,3.369v45.056c0,2.319-2.517,3.385-5.229,3.678v1.1c3.2-.279,5.743-.56,9.694-.56,3.39,0,5.931.28,9.131.56v-1.242c-2.963-.268-5.229-1.244-5.229-3.368V598.237h-.19c1.859,3.013,7.354,6.027,13.2,6.027,12.938,0,21-11.166,21-22.421,0-13.562-9.307-21.181-19.675-21.181m-2.392,38.629c-7.8,0-12.409-5.14-12.409-16.573,0-10.015,4.786-16.573,13.561-16.573,6.734,0,12.762,4.786,12.762,16.573,0,8.33-4.61,16.573-13.915,16.573" transform="translate(-30.233 -32.023)"/>
    <path id="Tracé_17" data-name="Tracé 17" d="M-980.139,560.109c-12.408,0-21.449,9.215-21.449,21.534,0,12.85,8.418,22.067,20.826,22.067,7.621,0,13.915-2.3,18.169-6.114l.62-5.76c-7.179,5.051-9.839,5.848-14.358,5.848-10.28,0-17.193-7.266-17.106-17.372h33.5c0-12.228-6.735-20.2-20.205-20.2m-12.761,16.02a12.8,12.8,0,0,1,12.849-11.346c7,0,11.433,4.521,11.433,11.346Z" transform="translate(-82.667 -31.879)"/>
    <path id="Tracé_18" data-name="Tracé 18" d="M-1068,440.8c-.815.585-1.562,1.164-2.351,1.675-1.215.787-2.435,1.576-3.7,2.278q-2.68,1.487-5.434,2.84c-1.372.671-2.782,1.275-4.205,1.831-1.26.491-2.558.884-3.847,1.3-1.358.441-2.71.916-4.09,1.275-1.627.425-3.281.759-4.928,1.1q-1.712.356-3.439.624c-.854.135-1.72.184-2.578.3a75.841,75.841,0,0,1-8.386.412c-1.468.03-2.941-.05-4.406-.149-1.484-.1-2.962-.292-4.443-.441-.643-.065-1.29-.108-1.931-.194-.92-.123-1.837-.265-2.752-.418-1.49-.248-2.977-.5-4.461-.775-.777-.142-1.546-.33-2.316-.5-1.411-.316-2.821-.628-4.228-.958-1.031-.241-2.055-.508-3.08-.77-1.5-.384-3-.762-4.5-1.159-1.367-.362-2.723-.762-4.092-1.114-2.035-.525-4.08-1-6.112-1.537-1.9-.5-3.791-1.034-5.683-1.57-1.2-.341-2.384-.747-3.593-1.057q-2.057-.526-4.144-.927c-1.453-.283-2.917-.5-4.377-.75-1.383-.238-2.762-.5-4.15-.719-1.007-.157-2.026-.25-3.037-.382-.847-.109-1.691-.245-2.538-.351-.642-.081-1.286-.152-1.931-.192-1.646-.1-3.292-.183-4.938-.282-.843-.05-1.683-.156-2.526-.169-1.778-.027-3.556-.034-5.334,0-1.486.025-2.974.082-4.459.184-1.683.116-3.365.258-5.039.463-1.529.186-3.048.453-4.566.719-1.456.253-2.917.494-4.35.844-1.518.37-3.016.827-4.5,1.309-1.743.566-3.482,1.151-5.187,1.818-1.383.543-2.74,1.172-4.064,1.848q-2.686,1.373-5.3,2.889c-.992.575-1.908,1.279-2.947,1.987-.379-.577-.757-1.088-1.049-1.646-.057-.111.161-.47.337-.584,1.743-1.126,3.48-2.267,5.27-3.318,1.166-.685,2.4-1.261,3.632-1.831,1.495-.694,3-1.372,4.532-1.979,1.147-.455,2.341-.79,3.516-1.173,1-.326,2-.7,3.02-.951,2.085-.506,4.181-.977,6.287-1.393,1.292-.257,2.606-.4,3.913-.565,1.163-.146,2.329-.265,3.5-.371.89-.081,1.786-.119,2.678-.184,1.218-.087,2.435-.231,3.655-.26,1.879-.045,3.759-.02,5.638-.009.653,0,1.3.059,1.956.087,1.422.063,2.849.089,4.268.193,1.607.115,3.21.271,4.81.456q2.816.325,5.619.734c1.834.272,3.663.585,5.489.908,1.38.244,2.753.532,4.131.8.981.191,1.972.352,2.943.586.648.156,1.265.432,1.906.622,1.185.35,2.379.674,3.569,1.011.959.272,1.916.552,2.877.818,1.349.373,2.7.751,4.055,1.1,1.861.477,3.732.918,5.592,1.393,2.237.57,4.466,1.169,6.7,1.738,2.051.522,4.1,1.062,6.163,1.516,1.721.376,3.465.646,5.2.949,1.458.254,2.917.508,4.382.722.921.134,1.855.189,2.782.288.777.083,1.55.186,2.326.264.482.048.967.079,1.451.1.987.038,1.975.084,2.965.087.87,0,1.74-.053,2.612-.071.672-.015,1.349.024,2.018-.021,1.489-.1,2.977-.222,4.463-.36,1.09-.1,2.18-.218,3.263-.374.886-.129,1.763-.322,2.641-.492.762-.148,1.529-.277,2.283-.458,1.274-.307,2.552-.606,3.8-.99,1.763-.54,3.513-1.133,5.252-1.752,1.278-.452,2.554-.926,3.783-1.491,1.5-.689,2.973-1.444,4.418-2.242,1.737-.96,3.439-1.983,5.143-3,.818-.491,1.6-1.042,2.412-1.551.5-.313.609-.28.937.208.257.381.5.767.795,1.211" transform="translate(-21.31)"/>
    <path id="Tracé_19" data-name="Tracé 19" d="M-1103.346,496.927c-1.266,0-2.532-.011-3.8,0-1.006.013-2.014.106-3.018.075-1.524-.049-3.046-.157-4.568-.268-1.063-.077-2.126-.164-3.188-.268-.879-.085-2.306-.309-3.176-.458-1.056-.181-2.115-.345-3.165-.554-2.224-.439-4.45-.871-6.662-1.364q-3.709-.825-7.392-1.757c-2.15-.545-4.28-1.17-6.423-1.743-1.41-.376-2.829-.716-4.239-1.089-.819-.217-1.624-.488-2.444-.7-1.383-.361-2.777-.682-4.16-1.045-.965-.252-1.917-.555-2.877-.821-1.4-.391-2.8-.8-4.22-1.143-.927-.223-1.885-.328-2.826-.5-1.085-.2-2.165-.441-3.255-.618-.989-.162-1.993-.248-2.986-.391-1.022-.147-2.038-.327-3.058-.484q-.889-.138-1.782-.244-1.663-.2-3.329-.374c-.346-.038-.692-.065-1.039-.084-1.2-.066-2.4-.135-3.6-.182-1.773-.071-3.547-.14-5.321-.181q-1.792-.04-3.585,0c-1.461.035-2.924.073-4.38.189-1.692.134-3.377.354-5.065.534-.329.035-.661.05-.989.093-.666.086-1.333.176-2,.282-1.108.174-2.217.344-3.319.552-.995.188-1.99.387-2.969.647-1.538.408-3.065.862-4.592,1.313-1.042.307-2.087.614-3.11.979-.84.3-1.66.66-2.47,1.033-1.324.611-2.656,1.209-3.943,1.894-1.5.8-2.967,1.663-4.426,2.536-.845.505-1.644,1.087-2.471,1.627-.212.139-.4.228-.577-.111-.222-.419-.536-.79-.8-1.188-.141-.211-.1-.358.138-.512,1.363-.865,2.7-1.774,4.069-2.624,1.1-.683,2.22-1.346,3.372-1.937,1.338-.686,2.7-1.345,4.091-1.9,1.584-.634,3.214-1.156,4.83-1.706.843-.288,1.69-.566,2.545-.816s1.727-.433,2.594-.634c1.309-.3,2.608-.653,3.924-.929.877-.183,1.77-.3,2.659-.421,1.371-.191,2.742-.386,4.115-.558.823-.1,2.175-.2,3-.257,1.505-.1,3.01-.23,4.517-.279,1.98-.065,3.961-.078,5.942-.093.559-.005,1.118.058,1.678.084,1.363.063,2.729.11,4.092.189,1.281.073,2.562.158,3.839.277.894.084,1.782.24,2.674.35.85.1,1.7.175,2.553.288.8.106,1.6.245,2.4.368.768.12,1.537.238,2.307.361s1.537.236,2.3.379c1.409.261,2.822.508,4.219.822,1.219.271,2.417.636,3.627.944.721.185,1.451.34,2.174.512.39.093.781.189,1.167.294,1.8.483,3.587.986,5.389,1.451,1.859.48,3.735.9,5.595,1.389,1.425.371,2.835.8,4.252,1.2s2.854.837,4.289,1.227,2.878.759,4.325,1.105c1.245.3,2.5.58,3.757.824,1.29.249,2.592.441,3.889.661,1.431.24,2.857.5,4.289.717q1.606.241,3.223.373c1.49.121,2.985.187,4.478.285.813.052,1.624.146,2.437.174,1.357.044,2.718,0,4.074-.012.9-.005,1.8-.018,2.7-.1,1.88-.177,3.755-.428,5.621-.708,1.939-.291,3.87-.649,5.788-1.048.657-.137,1.3-.332,1.943-.52,1.291-.379,2.63-.637,3.894-1.1,1.857-.671,3.684-1.43,5.51-2.183,1-.415,2.618-1.151,3.582-1.65,1.763-.913,3.513-1.849,5.233-2.835,1.435-.822,2.8-1.755,4.205-2.634.236-.149.445-.2.628.111a8.682,8.682,0,0,0,.7.991.531.531,0,0,1-.155.794c-.609.375-1.2.777-1.8,1.176a55.851,55.851,0,0,1-5.905,3.448c-1.37.688-2.71,1.438-4.1,2.075-1.471.672-2.969,1.3-4.477,1.882-1.059.412-2.139.764-3.227,1.092-1.632.493-3.266,1-4.917,1.414-1.141.29-2.3.489-3.459.725-.848.172-1.692.364-2.546.506-.8.135-1.6.227-2.41.316q-1.771.2-3.545.359c-.287.027-.58,0-.87,0,0,.034,0-.031,0-.031" transform="translate(-21.921 -11.115)"/>
    <path id="Tracé_20" data-name="Tracé 20" d="M-1067.721,462.245c-.96.642-1.852,1.269-2.773,1.849-1.4.877-2.817,1.74-4.245,2.574-.7.411-1.453.742-2.18,1.11-.825.416-1.643.849-2.477,1.247a51.026,51.026,0,0,1-6.433,2.571c-.9.29-1.794.625-2.705.89-1.668.487-3.333.994-5.025,1.385-1.89.435-3.8.779-5.713,1.105-1.122.191-2.262.292-3.4.4-.89.082-1.786.1-2.679.168-.72.05-1.439.149-2.161.173-.9.031-1.806.02-2.709.005-.994-.017-1.986-.05-2.98-.091-1.074-.047-2.149-.085-3.219-.174-1.576-.132-3.153-.271-4.722-.471s-3.135-.472-4.7-.729c-.839-.137-1.673-.309-2.51-.463-1.159-.214-2.324-.4-3.478-.643-.859-.18-1.7-.431-2.556-.638-1.78-.43-3.569-.83-5.343-1.285-1.629-.418-3.241-.907-4.866-1.337-1.483-.393-2.978-.743-4.463-1.125s-2.938-.773-4.406-1.16c-1.556-.411-3.116-.8-4.663-1.241-.769-.22-1.5-.563-2.267-.79s-1.56-.395-2.347-.562c-1.093-.233-2.19-.451-3.289-.661q-1.935-.37-3.876-.717c-1.413-.251-2.825-.5-4.243-.723-1.169-.18-2.346-.316-3.52-.469s-2.361-.315-3.546-.447c-.778-.088-1.562-.131-2.344-.194-1.126-.091-2.251-.186-3.379-.271-.264-.02-.53,0-.8,0-2.468-.03-4.936-.091-7.4-.081-1.749.008-3.5.073-5.247.187-1.287.084-2.564.3-3.848.438-.941.1-1.888.164-2.827.288s-1.864.279-2.789.461c-1.272.251-2.552.483-3.8.824-2.3.628-4.589,1.28-6.852,2.021a44.832,44.832,0,0,0-4.823,1.871,50.3,50.3,0,0,0-7.021,3.678c-.957.638-1.923,1.261-2.886,1.89-.24.157-.456.26-.664-.081-.243-.394-.557-.745-.795-1.141a.481.481,0,0,1,.058-.461,20.258,20.258,0,0,1,1.992-1.437q2.422-1.451,4.9-2.809c.857-.472,1.751-.88,2.644-1.281,1.292-.579,2.578-1.176,3.9-1.675q2.424-.912,4.906-1.663c1.423-.431,2.872-.787,4.324-1.116,1.4-.316,2.81-.557,4.217-.827.925-.177,1.845-.373,2.774-.52.667-.106,1.346-.138,2.018-.213,1.014-.115,2.026-.24,3.039-.353.375-.043.75-.079,1.127-.1.649-.039,1.3-.072,1.95-.093q1.708-.057,3.418-.092,1.748-.036,3.5-.049c.434,0,.868.033,1.3.048,1.813.061,3.625.094,5.436.191,1.5.081,3.009.2,4.506.369,1.726.2,3.442.477,5.164.713,1.187.163,2.38.293,3.566.472,1.094.166,2.18.379,3.269.568.486.085.974.157,1.459.249.835.16,1.669.323,2.5.5,1.356.286,2.711.574,4.061.884.3.069.569.268.868.353.916.262,1.843.489,2.761.745.972.271,1.936.574,2.914.838,1.494.4,3,.783,4.495,1.176q2.179.573,4.359,1.156c1.754.467,3.509.94,5.265,1.4,1.352.359,2.7.725,4.062,1.057,1.159.282,2.328.519,3.491.777.873.194,1.743.407,2.619.58,1.406.279,2.815.54,4.225.793.912.165,1.826.322,2.745.447,1.071.146,2.146.254,3.218.38.522.061,1.044.129,1.566.19s1.045.155,1.57.17c2.689.074,5.379.146,8.069.178.889.012,1.778-.1,2.668-.152.85-.045,1.7-.038,2.551-.122.906-.09,1.8-.262,2.708-.393.594-.084,1.19-.146,1.782-.241,1.18-.188,2.366-.35,3.534-.6,1.616-.345,3.233-.7,4.82-1.159,1.559-.447,3.086-1.011,4.62-1.542.915-.316,1.834-.627,2.719-1.016,1.353-.6,2.685-1.243,4.011-1.894,1.082-.532,2.163-1.067,3.21-1.664,1.6-.909,3.164-1.867,4.737-2.818.613-.37,1.224-.75,1.8-1.176.276-.206.419-.1.558.095.325.463.631.941,1,1.5" transform="translate(-21.379 -5.574)"/>
  </g>
</svg>
